<svg width="24" height="24" viewBox="0 0 24 24" fill="none" xmlns="http://www.w3.org/2000/svg">
<path d="M13.5 6C14.8807 6 16 4.88071 16 3.5C16 2.11929 14.8807 1 13.5 1C12.1193 1 11 2.11929 11 3.5C11 4.88071 12.1193 6 13.5 6Z" fill="#141414"/>
<path d="M14 15.5C16 10 15 8 12 8C10.3873 8 8.12428 9.30047 7.30839 9.80408C7.11354 9.92436 7 10.1375 7 10.3665C7 10.6782 7.3063 10.8969 7.60411 10.8051C10.126 10.0273 10.8591 10.3876 9 15.5C7 21 8.00001 23 11 23C12.6127 23 14.8757 21.6995 15.6916 21.1959C15.8865 21.0756 16 20.8625 16 20.6335C16 20.3218 15.6937 20.1031 15.3959 20.1949C12.874 20.9727 12.1409 20.6124 14 15.5Z" fill="#141414"/>
</svg>
