<svg width="140" height="19" viewBox="0 0 140 19" fill="none" xmlns="http://www.w3.org/2000/svg">
<g clip-path="url(#clip0_7320_143678)">
<g clip-path="url(#clip1_7320_143678)">
<path d="M50.5199 0H47.645V14.5H50.5199V10.2225L54.0536 14.5H57.4675L53.0354 9.0625L56.5092 4.83333H53.1552L50.5199 8.04167V0Z" fill="#141414"/>
<path d="M46.5757 10.5427C46.0945 12.8045 44.1012 14.5 41.7153 14.5C38.9698 14.5 36.7441 12.2549 36.7441 9.48541C36.7441 6.71593 38.9698 4.47083 41.7153 4.47083C44.1224 4.47083 46.1299 6.19663 46.5882 8.48853H43.6254C43.2961 7.65118 42.5647 7.06874 41.7153 7.06874C40.5575 7.06874 39.619 8.15072 39.619 9.48541C39.619 10.8201 40.5575 11.9021 41.7153 11.9021C42.5441 11.9021 43.2606 11.3475 43.6008 10.5427H46.5757Z" fill="#141414"/>
<path d="M34.1093 3.625C35.1016 3.625 35.9061 2.81352 35.9061 1.8125C35.9061 0.811484 35.1016 0 34.1093 0C33.117 0 32.3125 0.811484 32.3125 1.8125C32.3125 2.81352 33.117 3.625 34.1093 3.625Z" fill="#141414"/>
<path d="M35.5467 14.5V4.83333H32.6719V14.5H35.5467Z" fill="#141414"/>
<rect x="28.1196" width="2.87487" height="14.5" fill="#141414"/>
<path d="M27.0508 10.5427C26.5696 12.8045 24.5763 14.5 22.1904 14.5C19.4449 14.5 17.2192 12.2549 17.2192 9.48541C17.2192 6.71593 19.4449 4.47083 22.1904 4.47083C24.5975 4.47083 26.605 6.19663 27.0633 8.48853H24.1005C23.7712 7.65118 23.0398 7.06874 22.1904 7.06874C21.0326 7.06874 20.0941 8.15072 20.0941 9.48541C20.0941 10.8201 21.0326 11.9021 22.1904 11.9021C23.0192 11.9021 23.7357 11.3475 24.0759 10.5427H27.0508Z" fill="#141414"/>
</g>
<g clip-path="url(#clip2_7320_143678)">
<path d="M13.622 0.758874C14.6251 1.77071 14.6251 5.02617 13.622 6.038C12.619 7.04983 9.39172 7.04983 8.38866 6.038C7.3856 5.02617 7.3856 1.77071 8.38866 0.758874C9.39172 -0.252958 12.619 -0.252958 13.622 0.758874Z" fill="#0077FF"/>
<path d="M0.195839 8.69277C0 9.08048 0 9.58803 0 10.6031V11.6C0 12.6151 0 13.1226 0.195839 13.5104C0.368103 13.8514 0.642977 14.1287 0.981065 14.3024C1.36542 14.5 1.86857 14.5 2.87487 14.5H3.8631C4.8694 14.5 5.37255 14.5 5.7569 14.3024C6.09499 14.1287 6.36986 13.8514 6.54213 13.5104C6.73797 13.1226 6.73797 12.6151 6.73797 11.6V10.6031C6.73797 9.58803 6.73797 9.08048 6.54213 8.69277C6.36986 8.35172 6.09499 8.07445 5.7569 7.90068C5.37255 7.70312 4.8694 7.70312 3.8631 7.70312H2.87487C1.86857 7.70312 1.36542 7.70312 0.981065 7.90068C0.642977 8.07445 0.368103 8.35172 0.195839 8.69277Z" fill="#0077FF"/>
<path d="M11.0053 14.5C12.866 14.5 14.3743 12.9785 14.3743 11.1016C14.3743 9.22466 12.866 7.70312 11.0053 7.70312C9.14471 7.70312 7.63636 9.22466 7.63636 11.1016C7.63636 12.9785 9.14471 14.5 11.0053 14.5Z" fill="#0077FF"/>
<path d="M3.36898 6.79688C4.66043 6.79688 6.73797 4.70117 6.73797 3.39844C6.73797 2.0957 4.66043 3.37604e-08 3.36898 3.37604e-08C2.07754 3.37604e-08 0 2.0957 0 3.39844C0 4.70117 2.07754 6.79688 3.36898 6.79688Z" fill="#0077FF"/>
</g>
</g>
<path d="M135.337 14.7061C132.812 14.7061 131.104 13.2827 131.011 11.4472H133.963C134.019 12.1964 134.632 12.5709 135.43 12.5709C136.154 12.5709 136.47 12.3275 136.47 11.9716C136.47 11.5408 136.136 11.391 135.412 11.185L133.536 10.698C131.902 10.2673 131.197 9.16224 131.197 7.75755C131.197 6.12811 132.627 4.92944 135.077 4.92944C137.12 4.92944 138.772 5.97828 138.921 7.96357H136.099C135.969 7.27059 135.523 7.10203 135.022 7.10203C134.446 7.10203 134.075 7.32678 134.075 7.70136C134.075 8.18832 134.576 8.33815 135.022 8.4318L136.711 8.8813C138.587 9.38699 139.329 10.3234 139.329 11.8218C139.329 13.5636 137.658 14.7061 135.337 14.7061Z" fill="#0077FF"/>
<path d="M123.375 18.4144H120.571V5.13546H123.375V6.07192C123.728 5.54751 124.675 4.92944 125.9 4.92944C128.332 4.92944 130.207 7.17694 130.207 9.81776C130.207 12.4586 128.332 14.7061 125.9 14.7061C124.675 14.7061 123.728 14.088 123.375 13.5636V18.4144ZM125.269 12.1402C126.531 12.1402 127.385 11.1663 127.385 9.81776C127.385 8.46926 126.531 7.49534 125.269 7.49534C124.006 7.49534 123.152 8.46926 123.152 9.81776C123.152 11.1663 124.006 12.1402 125.269 12.1402Z" fill="#0077FF"/>
<path d="M112.359 18.4144H109.556V5.13546H112.359V6.07192C112.712 5.54751 113.659 4.92944 114.884 4.92944C117.317 4.92944 119.192 7.17694 119.192 9.81776C119.192 12.4586 117.317 14.7061 114.884 14.7061C113.659 14.7061 112.712 14.088 112.359 13.5636V18.4144ZM114.253 12.1402C115.516 12.1402 116.37 11.1663 116.37 9.81776C116.37 8.46926 115.516 7.49534 114.253 7.49534C112.991 7.49534 112.136 8.46926 112.136 9.81776C112.136 11.1663 112.991 12.1402 114.253 12.1402Z" fill="#0077FF"/>
<path d="M94.8325 14.5L100.477 1.20227H103.15L108.795 14.5H105.713L104.543 11.6906H99.0843L97.9146 14.5H94.8325ZM101.814 5.11667L100.143 9.10598H103.466L101.814 5.11667Z" fill="#0077FF"/>
<path d="M92.653 3.8619C91.7061 3.8619 90.9077 3.07528 90.9077 2.10136C90.9077 1.12745 91.7061 0.34082 92.653 0.34082C93.637 0.34082 94.4168 1.12745 94.4168 2.10136C94.4168 3.07528 93.637 3.8619 92.653 3.8619ZM91.2605 14.5001V5.13549H94.0641V14.5001H91.2605Z" fill="#0077FF"/>
<path d="M80.4624 14.5V5.13546H83.266V6.09065C83.7116 5.43513 84.6399 4.92944 85.8468 4.92944C88.1305 4.92944 89.4488 6.6338 89.4488 9.08732V14.5H86.6452V9.57428C86.6452 8.28196 86.1624 7.49534 85.1412 7.49534C84.0829 7.49534 83.266 8.24451 83.266 9.94886V14.5H80.4624Z" fill="#0077FF"/>
<path d="M77.1134 3.8619C76.1665 3.8619 75.3682 3.07528 75.3682 2.10136C75.3682 1.12745 76.1665 0.34082 77.1134 0.34082C78.0975 0.34082 78.8773 1.12745 78.8773 2.10136C78.8773 3.07528 78.0975 3.8619 77.1134 3.8619ZM75.7209 14.5001V5.13549H78.5245V14.5001H75.7209Z" fill="#0077FF"/>
<path d="M60.0874 1.20227H62.7796L66.8829 6.9334L71.0233 1.20227H73.7155V14.5H70.7448V6.31533L66.9014 11.6719L63.0395 6.2966V14.5H60.0874V1.20227Z" fill="#0077FF"/>
<defs>
<clipPath id="clip0_7320_143678">
<rect width="57.4973" height="14.5" fill="white"/>
</clipPath>
<clipPath id="clip1_7320_143678">
<rect width="40.2781" height="14.5" fill="white" transform="translate(17.2192)"/>
</clipPath>
<clipPath id="clip2_7320_143678">
<rect width="14.3743" height="14.5" fill="white"/>
</clipPath>
</defs>
</svg>
